<?xml version="1.0" encoding="utf-8"?><!DOCTYPE svg PUBLIC "-//W3C//DTD SVG 1.1//EN" "http://www.w3.org/Graphics/SVG/1.1/DTD/svg11.dtd"><svg version="1.1" xmlns="http://www.w3.org/2000/svg" xmlns:xlink="http://www.w3.org/1999/xlink" x="0px" y="0px" viewBox="-0.704 20.786 100 84.67375000000001" enable-background="new -0.704 20.786 100 67.739" xml:space="preserve"><path d="M98.686,41.55c-0.609-0.7-3.235-2.146-3.771-3.831c-1.465-5.305-7.68-7.251-7.68-7.251l0.667-9.682
	c-2.757,0.841-6.581,4.013-10.58,8.03c-0.623-0.081-1.262-0.139-1.91-0.139c-4.592,0-8.683,2.139-11.346,5.463
	c-5.792-4.752-12.1-8.063-22.343-7.699C20.039,27.218,8.152,41.867,4.252,62.13c-4.987,3.972-5.215,8.396-4.833,10.836
	c1.16,7.44,9.97,12.845,15.854,14.304c17.662,4.384,35.815-2.925,46.243-18.61c1.399-2.102,0.827-4.941-1.279-6.341
	c-2.1-1.398-4.938-0.826-6.339,1.275C45.636,76.021,31.34,81.831,17.475,78.39c-3.853-0.957-8.261-4.222-8.943-6.537l1.159,0.293
	h31.521c4.022-2.448,7.594-5.837,10.406-10.067c2.232-3.363,6.787-4.275,10.146-2.043c3.358,2.234,4.277,6.785,2.043,10.146
	c-0.448,0.669-0.912,1.32-1.384,1.964h19.023c-0.074-0.154,0.082-0.065,0.082-0.065c-0.158-0.237-1.931-2.989-2.128-6.117
	c-0.375-5.922,3.597-10.823,3.597-10.823l0.041-0.059c12.408,2.168,15.094-5.622,15.781-9.412
	C99.138,43.918,99.774,42.284,98.686,41.55z M88.248,40.189c-0.945,0-1.712-0.768-1.712-1.713c0-0.946,0.767-1.713,1.712-1.713
	c0.947,0,1.713,0.768,1.713,1.713S89.195,40.189,88.248,40.189z"/></svg>